<svg width="58" height="62" viewBox="0 0 58 62" fill="none" xmlns="http://www.w3.org/2000/svg">
<g filter="url(#filter0_d_101_3)">
<path d="M48.6429 0.75H9.35714C7.93634 0.75 6.57373 1.34263 5.56907 2.39752C4.56441 3.45242 4 4.88316 4 6.375L4 47.625C4 49.1168 4.56441 50.5476 5.56907 51.6025C6.57373 52.6574 7.93634 53.25 9.35714 53.25H24.6752V35.4012H17.644V27H24.6752V20.5969C24.6752 13.3137 28.8047 9.29062 35.1295 9.29062C38.1585 9.29062 41.3259 9.85781 41.3259 9.85781V17.0063H37.8359C34.3973 17.0063 33.3248 19.2469 33.3248 21.5449V27H41.0011L39.7734 35.4012H33.3248V53.25H48.6429C50.0637 53.25 51.4263 52.6574 52.4309 51.6025C53.4356 50.5476 54 49.1168 54 47.625V6.375C54 4.88316 53.4356 3.45242 52.4309 2.39752C51.4263 1.34263 50.0637 0.75 48.6429 0.75V0.75Z" fill="black"/>
</g>
<defs>
<filter id="filter0_d_101_3" x="0" y="0.75" width="58" height="60.5" filterUnits="userSpaceOnUse" color-interpolation-filters="sRGB">
<feFlood flood-opacity="0" result="BackgroundImageFix"/>
<feColorMatrix in="SourceAlpha" type="matrix" values="0 0 0 0 0 0 0 0 0 0 0 0 0 0 0 0 0 0 127 0" result="hardAlpha"/>
<feOffset dy="4"/>
<feGaussianBlur stdDeviation="2"/>
<feComposite in2="hardAlpha" operator="out"/>
<feColorMatrix type="matrix" values="0 0 0 0 0 0 0 0 0 0 0 0 0 0 0 0 0 0 0.25 0"/>
<feBlend mode="normal" in2="BackgroundImageFix" result="effect1_dropShadow_101_3"/>
<feBlend mode="normal" in="SourceGraphic" in2="effect1_dropShadow_101_3" result="shape"/>
</filter>
</defs>
</svg>
