<svg width="58" height="59" viewBox="0 0 58 59" fill="none" xmlns="http://www.w3.org/2000/svg">
<g filter="url(#filter0_d_101_11)">
<path d="M53.839 15.0529C53.811 12.9115 53.4173 10.7914 52.6756 8.78745C52.0324 7.09712 51.05 5.56199 49.7912 4.28015C48.5324 2.99832 47.0249 1.99796 45.365 1.343C43.4223 0.600411 41.37 0.19888 39.2954 0.155505C36.6244 0.0339286 35.7775 0 28.9972 0C22.2169 0 21.3478 1.8959e-07 18.6962 0.155505C16.6226 0.199199 14.5713 0.600725 12.6295 1.343C10.9693 1.9975 9.46152 2.9977 8.20267 4.27959C6.94382 5.56149 5.9616 7.09685 5.31886 8.78745C4.58816 10.7642 4.1947 12.8535 4.15549 14.9652C4.0361 17.688 4 18.5503 4 25.4548C4 32.3592 4 33.2413 4.15549 35.9443C4.19713 38.0592 4.58863 40.1458 5.31886 42.1277C5.96268 43.8178 6.94562 45.3526 8.2049 46.6339C9.46417 47.9153 10.9721 48.915 12.6323 49.5694C14.5687 50.3418 16.6204 50.7721 18.699 50.8417C21.3728 50.9632 22.2197 51 29 51C35.7803 51 36.6494 51 39.301 50.8417C41.3755 50.8001 43.4279 50.3995 45.3705 49.657C47.03 49.0013 48.5372 48.0007 49.7959 46.7189C51.0546 45.4372 52.0372 43.9024 52.6811 42.2126C53.4114 40.2334 53.8029 38.1468 53.8445 36.0291C53.9639 33.3092 54 32.4468 54 25.5396C53.9944 18.6352 53.9945 17.7587 53.839 15.0529V15.0529ZM28.9806 38.5115C21.8893 38.5115 16.1446 32.6617 16.1446 25.4406C16.1446 18.2195 21.8893 12.3697 28.9806 12.3697C32.3849 12.3697 35.6498 13.7468 38.057 16.1981C40.4642 18.6494 41.8165 21.974 41.8165 25.4406C41.8165 28.9072 40.4642 32.2319 38.057 34.6832C35.6498 37.1344 32.3849 38.5115 28.9806 38.5115V38.5115ZM42.3274 14.9341C41.9342 14.9345 41.5449 14.8559 41.1816 14.7029C40.8183 14.5499 40.4882 14.3254 40.2101 14.0423C39.9321 13.7592 39.7117 13.423 39.5614 13.0531C39.4111 12.6831 39.3339 12.2866 39.3343 11.8862C39.3343 11.4862 39.4117 11.09 39.562 10.7204C39.7124 10.3508 39.9327 10.0149 40.2106 9.73205C40.4884 9.44916 40.8182 9.22476 41.1811 9.07166C41.5441 8.91856 41.9331 8.83976 42.326 8.83976C42.7189 8.83976 43.1079 8.91856 43.4709 9.07166C43.8339 9.22476 44.1637 9.44916 44.4415 9.73205C44.7193 10.0149 44.9397 10.3508 45.09 10.7204C45.2404 11.09 45.3178 11.4862 45.3178 11.8862C45.3178 13.5714 43.9795 14.9341 42.3274 14.9341Z" fill="black"/>
<path d="M29.5 34C34.1944 34 38 30.1944 38 25.5C38 20.8056 34.1944 17 29.5 17C24.8056 17 21 20.8056 21 25.5C21 30.1944 24.8056 34 29.5 34Z" fill="black"/>
</g>
<defs>
<filter id="filter0_d_101_11" x="0" y="0" width="58" height="59" filterUnits="userSpaceOnUse" color-interpolation-filters="sRGB">
<feFlood flood-opacity="0" result="BackgroundImageFix"/>
<feColorMatrix in="SourceAlpha" type="matrix" values="0 0 0 0 0 0 0 0 0 0 0 0 0 0 0 0 0 0 127 0" result="hardAlpha"/>
<feOffset dy="4"/>
<feGaussianBlur stdDeviation="2"/>
<feComposite in2="hardAlpha" operator="out"/>
<feColorMatrix type="matrix" values="0 0 0 0 0 0 0 0 0 0 0 0 0 0 0 0 0 0 0.25 0"/>
<feBlend mode="normal" in2="BackgroundImageFix" result="effect1_dropShadow_101_11"/>
<feBlend mode="normal" in="SourceGraphic" in2="effect1_dropShadow_101_11" result="shape"/>
</filter>
</defs>
</svg>
