<svg width="48" height="48" viewBox="0 0 48 48" fill="none" xmlns="http://www.w3.org/2000/svg">
<path fill-rule="evenodd" clip-rule="evenodd" d="M14.1055 0.144C16.6647 0.0261818 17.4807 0 24 0C30.5193 0 31.3353 0.0283636 33.8924 0.144C36.4495 0.259636 38.1949 0.667636 39.7222 1.25891C41.3215 1.86327 42.7724 2.808 43.9724 4.02982C45.1942 5.22764 46.1367 6.67636 46.7389 8.27782C47.3324 9.80509 47.7382 11.5505 47.856 14.1033C47.9738 16.6669 48 17.4829 48 24C48 30.5193 47.9716 31.3353 47.856 33.8945C47.7404 36.4473 47.3324 38.1927 46.7389 39.72C46.1367 41.3217 45.1926 42.7728 43.9724 43.9724C42.7724 45.1942 41.3215 46.1367 39.7222 46.7389C38.1949 47.3324 36.4495 47.7382 33.8967 47.856C31.3353 47.9738 30.5193 48 24 48C17.4807 48 16.6647 47.9716 14.1055 47.856C11.5527 47.7404 9.80727 47.3324 8.28 46.7389C6.67837 46.1367 5.22724 45.1926 4.02764 43.9724C2.80665 42.7738 1.86178 41.3234 1.25891 39.7222C0.667636 38.1949 0.261818 36.4495 0.144 33.8967C0.0261818 31.3331 0 30.5171 0 24C0 17.4807 0.0283636 16.6647 0.144 14.1076C0.259636 11.5505 0.667636 9.80509 1.25891 8.27782C1.86267 6.67654 2.80826 5.22614 4.02982 4.02764C5.22772 2.80691 6.67739 1.86206 8.27782 1.25891C9.80509 0.667636 11.5505 0.261818 14.1033 0.144H14.1055ZM33.6982 4.464C31.1673 4.34836 30.408 4.32436 24 4.32436C17.592 4.32436 16.8327 4.34836 14.3018 4.464C11.9607 4.57091 10.6909 4.96145 9.84436 5.29091C8.72509 5.72727 7.92436 6.24436 7.08436 7.08436C6.2881 7.85902 5.6753 8.80207 5.29091 9.84436C4.96145 10.6909 4.57091 11.9607 4.464 14.3018C4.34836 16.8327 4.32436 17.592 4.32436 24C4.32436 30.408 4.34836 31.1673 4.464 33.6982C4.57091 36.0393 4.96145 37.3091 5.29091 38.1556C5.67491 39.1964 6.288 40.1411 7.08436 40.9156C7.85891 41.712 8.80364 42.3251 9.84436 42.7091C10.6909 43.0385 11.9607 43.4291 14.3018 43.536C16.8327 43.6516 17.5898 43.6756 24 43.6756C30.4102 43.6756 31.1673 43.6516 33.6982 43.536C36.0393 43.4291 37.3091 43.0385 38.1556 42.7091C39.2749 42.2727 40.0756 41.7556 40.9156 40.9156C41.712 40.1411 42.3251 39.1964 42.7091 38.1556C43.0385 37.3091 43.4291 36.0393 43.536 33.6982C43.6516 31.1673 43.6756 30.408 43.6756 24C43.6756 17.592 43.6516 16.8327 43.536 14.3018C43.4291 11.9607 43.0385 10.6909 42.7091 9.84436C42.2727 8.72509 41.7556 7.92436 40.9156 7.08436C40.1409 6.28816 39.1979 5.67537 38.1556 5.29091C37.3091 4.96145 36.0393 4.57091 33.6982 4.464ZM20.9345 31.3985C22.6465 32.1112 24.5528 32.2074 26.3278 31.6707C28.1029 31.134 29.6365 29.9976 30.6668 28.4558C31.6971 26.914 32.1601 25.0623 31.9768 23.217C31.7935 21.3716 30.9753 19.6472 29.6618 18.3382C28.8245 17.5014 27.8121 16.8607 26.6975 16.4621C25.5828 16.0636 24.3937 15.9172 23.2156 16.0333C22.0376 16.1495 20.9 16.5255 19.8847 17.1341C18.8694 17.7427 18.0016 18.5689 17.3439 19.5531C16.6862 20.5374 16.255 21.6552 16.0811 22.8261C15.9073 23.997 15.9952 25.1919 16.3386 26.3248C16.682 27.4576 17.2723 28.5002 18.067 29.3776C18.8617 30.2549 19.8411 30.9451 20.9345 31.3985ZM15.2771 15.2771C16.4226 14.1316 17.7825 13.2229 19.2792 12.603C20.7759 11.983 22.38 11.6639 24 11.6639C25.62 11.6639 27.2241 11.983 28.7208 12.603C30.2175 13.2229 31.5774 14.1316 32.7229 15.2771C33.8684 16.4226 34.7771 17.7825 35.397 19.2792C36.017 20.7759 36.3361 22.38 36.3361 24C36.3361 25.62 36.017 27.2241 35.397 28.7208C34.7771 30.2175 33.8684 31.5774 32.7229 32.7229C30.4095 35.0364 27.2717 36.3361 24 36.3361C20.7283 36.3361 17.5906 35.0364 15.2771 32.7229C12.9636 30.4095 11.6639 27.2717 11.6639 24C11.6639 20.7283 12.9636 17.5906 15.2771 15.2771ZM39.072 13.5011C39.3559 13.2333 39.5831 12.9113 39.7403 12.5541C39.8975 12.1969 39.9814 11.8119 39.9871 11.4217C39.9928 11.0315 39.9201 10.6441 39.7734 10.2825C39.6267 9.92089 39.4089 9.59239 39.133 9.31645C38.8571 9.04051 38.5286 8.82274 38.167 8.67604C37.8054 8.52933 37.418 8.45667 37.0278 8.46236C36.6376 8.46805 36.2525 8.55197 35.8953 8.70916C35.5382 8.86634 35.2161 9.09359 34.9484 9.37745C34.4276 9.92952 34.1425 10.6628 34.1535 11.4217C34.1646 12.1805 34.471 12.9052 35.0076 13.4418C35.5443 13.9785 36.2689 14.2849 37.0278 14.2959C37.7866 14.307 38.5199 14.0219 39.072 13.5011Z" fill="black"/>
</svg>
