<svg width="84" height="50" viewBox="0 0 84 50" fill="none" xmlns="http://www.w3.org/2000/svg">
<g filter="url(#filter0_d_2_143)">
<path d="M68.125 42H42V3.57292C44.7214 1.19097 47.888 0 51.5 0C55.4583 0 58.8229 1.36111 61.5938 4.08333C64.3646 6.80556 65.75 10.1111 65.75 14C65.75 15.7986 65.4036 17.5243 64.7109 19.1771C65.9479 18.8368 67.0859 18.6667 68.125 18.6667C71.3906 18.6667 74.1862 19.809 76.5117 22.0938C78.8372 24.3785 80 27.125 80 30.3333C80 33.5417 78.8372 36.2882 76.5117 38.5729C74.1862 40.8576 71.3906 42 68.125 42ZM37.25 42H32.5V9.625C34.2318 9.96528 35.8151 10.6701 37.25 11.7396V42ZM23 11.7396C24.3854 10.6701 25.9688 9.96528 27.75 9.625V42H23V11.7396ZM13.5 41.7812V18.8854C14.2917 18.7396 15.0833 18.6667 15.875 18.6667C16.6172 18.6667 17.4089 18.7639 18.25 18.9583V42H15.875C15.0833 42 14.2917 41.9271 13.5 41.7812ZM8.75 21.0729V39.5938C7.26562 38.5243 6.10286 37.1753 5.26172 35.5469C4.42057 33.9184 4 32.1806 4 30.3333C4 28.4861 4.42057 26.7483 5.26172 25.1198C6.10286 23.4913 7.26562 22.1424 8.75 21.0729Z" fill="black"/>
</g>
<defs>
<filter id="filter0_d_2_143" x="0" y="0" width="84" height="50" filterUnits="userSpaceOnUse" color-interpolation-filters="sRGB">
<feFlood flood-opacity="0" result="BackgroundImageFix"/>
<feColorMatrix in="SourceAlpha" type="matrix" values="0 0 0 0 0 0 0 0 0 0 0 0 0 0 0 0 0 0 127 0" result="hardAlpha"/>
<feOffset dy="4"/>
<feGaussianBlur stdDeviation="2"/>
<feComposite in2="hardAlpha" operator="out"/>
<feColorMatrix type="matrix" values="0 0 0 0 0 0 0 0 0 0 0 0 0 0 0 0 0 0 0.25 0"/>
<feBlend mode="normal" in2="BackgroundImageFix" result="effect1_dropShadow_2_143"/>
<feBlend mode="normal" in="SourceGraphic" in2="effect1_dropShadow_2_143" result="shape"/>
</filter>
</defs>
</svg>
