<svg width="76" height="42" viewBox="0 0 76 42" fill="none" xmlns="http://www.w3.org/2000/svg">
<path d="M64.125 42H38V3.57292C40.7214 1.19097 43.888 0 47.5 0C51.4583 0 54.8229 1.36111 57.5938 4.08333C60.3646 6.80556 61.75 10.1111 61.75 14C61.75 15.7986 61.4036 17.5243 60.7109 19.1771C61.9479 18.8368 63.0859 18.6667 64.125 18.6667C67.3906 18.6667 70.1862 19.809 72.5117 22.0938C74.8372 24.3785 76 27.125 76 30.3333C76 33.5417 74.8372 36.2882 72.5117 38.5729C70.1862 40.8576 67.3906 42 64.125 42ZM33.25 42H28.5V9.625C30.2318 9.96528 31.8151 10.6701 33.25 11.7396V42ZM19 11.7396C20.3854 10.6701 21.9688 9.96528 23.75 9.625V42H19V11.7396ZM9.5 41.7812V18.8854C10.2917 18.7396 11.0833 18.6667 11.875 18.6667C12.6172 18.6667 13.4089 18.7639 14.25 18.9583V42H11.875C11.0833 42 10.2917 41.9271 9.5 41.7812ZM4.75 21.0729V39.5938C3.26562 38.5243 2.10286 37.1753 1.26172 35.5469C0.420573 33.9184 0 32.1806 0 30.3333C0 28.4861 0.420573 26.7483 1.26172 25.1198C2.10286 23.4913 3.26562 22.1424 4.75 21.0729Z" fill="black"/>
</svg>
