<svg width="68" height="50" viewBox="0 0 68 50" fill="none" xmlns="http://www.w3.org/2000/svg">
<g filter="url(#filter0_d_2_142)">
<path d="M62.7478 6.56083C62.4062 5.29038 61.7365 4.13181 60.8058 3.20107C59.875 2.27032 58.7158 1.60005 57.4442 1.25733C52.7634 2.55123e-07 34 0 34 0C34 0 15.2366 -2.55123e-07 10.5558 1.25064C9.28362 1.59225 8.12383 2.26215 7.1929 3.19307C6.26197 4.12399 5.59267 5.28315 5.25223 6.55414C4 11.2357 4 21 4 21C4 21 4 30.7643 5.25223 35.4392C5.94196 38.0207 7.97768 40.0538 10.5558 40.7427C15.2366 42 34 42 34 42C34 42 52.7634 42 57.4442 40.7427C60.029 40.0538 62.058 38.0207 62.7478 35.4392C64 30.7643 64 21 64 21C64 21 64 11.2357 62.7478 6.56083ZM28.0402 29.9618V12.0382L43.5759 20.9331L28.0402 29.9618Z" fill="black"/>
</g>
<defs>
<filter id="filter0_d_2_142" x="0" y="0" width="68" height="50" filterUnits="userSpaceOnUse" color-interpolation-filters="sRGB">
<feFlood flood-opacity="0" result="BackgroundImageFix"/>
<feColorMatrix in="SourceAlpha" type="matrix" values="0 0 0 0 0 0 0 0 0 0 0 0 0 0 0 0 0 0 127 0" result="hardAlpha"/>
<feOffset dy="4"/>
<feGaussianBlur stdDeviation="2"/>
<feComposite in2="hardAlpha" operator="out"/>
<feColorMatrix type="matrix" values="0 0 0 0 0 0 0 0 0 0 0 0 0 0 0 0 0 0 0.25 0"/>
<feBlend mode="normal" in2="BackgroundImageFix" result="effect1_dropShadow_2_142"/>
<feBlend mode="normal" in="SourceGraphic" in2="effect1_dropShadow_2_142" result="shape"/>
</filter>
</defs>
</svg>
