<svg width="60" height="42" viewBox="0 0 60 42" fill="none" xmlns="http://www.w3.org/2000/svg">
<path d="M58.7478 6.56083C58.4062 5.29038 57.7365 4.13181 56.8058 3.20107C55.875 2.27032 54.7158 1.60005 53.4442 1.25733C48.7634 2.55123e-07 30 0 30 0C30 0 11.2366 -2.55123e-07 6.5558 1.25064C5.28362 1.59225 4.12383 2.26215 3.1929 3.19307C2.26197 4.12399 1.59267 5.28315 1.25223 6.55414C-2.55448e-07 11.2357 0 21 0 21C0 21 -2.55448e-07 30.7643 1.25223 35.4392C1.94196 38.0207 3.97768 40.0538 6.5558 40.7427C11.2366 42 30 42 30 42C30 42 48.7634 42 53.4442 40.7427C56.029 40.0538 58.058 38.0207 58.7478 35.4392C60 30.7643 60 21 60 21C60 21 60 11.2357 58.7478 6.56083ZM24.0402 29.9618V12.0382L39.5759 20.9331L24.0402 29.9618Z" fill="black"/>
</svg>
